# xmcd
#
# Track frame offsets: 
#        150
#        16534
#        30659
#        44738
#        57982
#        67018
#        78246
#        86538
#        102991
#        120022
#        139099
#        155320
#        169183
#        183880
#        200393
#        213322
#        232463
#        246413
#        264531
#        285035
#        299362
#
# Disc length: 4323 seconds
#
# Revision: 0
# Processed by: cddbd v1.5.2PL0 Copyright (c) Steve Scherf et al.
# Submitted via: ExactAudioCopy v0.99pb4
#
DISCID=2310e115
DTITLE=Various Artist - Let Me Be Your Sidetrack CD 6
DYEAR=2008
DGENRE=Country
TTITLE0=Dean Mitchell - Blue Yodel No. 11
TTITLE1=Dean Mitchell - I'm Lonesome, Too
TTITLE2=Dean Mitchell - I've Only Loved Three Women
TTITLE3=Dean Mitchell - Take Me Back Again
TTITLE4=Dean Mitchell - That's Why I'm Blue
TTITLE5=Dean Mitchell - What's It?
TTITLE6=Dean Mitchell - Yodeling My Way Back Home
TTITLE7=Bono - Dreaming With Tears In My Eyes
TTITLE8=Alison Krauss - Any Old Time
TTITLE9=Dicky Betts - Waiting For A Train
TTITLE10=Mary Chapin Carpenter - Somewhere Below The Mason Dixon Line
TTITLE11=David Ball - Miss The Mississippi And You
TTITLE12=Bob Dylan - My Blue Eyed Jane
TTITLE13=Willie Nelson - Peach Picking Time In Georgia
TTITLE14=Steve Earle - In The Jailhouse Now
TTITLE15=Jerry Garcia, David Grisman, John Kahn - Blue Yodel #9
TTITLE16=Iris Dement - Hobo Bill's Last Ride
TTITLE17=John Mellencamp - Gambling Bar Room Blues
TTITLE18=Van Morrison - Mule Skinner Blues
TTITLE19=Aaron Neville - Why Should I Be Lonely
TTITLE20=Dwight Yoakam - T For Texas
EXTD=
EXTT0=
EXTT1=
EXTT2=
EXTT3=
EXTT4=
EXTT5=
EXTT6=
EXTT7=
EXTT8=
EXTT9=
EXTT10=
EXTT11=
EXTT12=
EXTT13=
EXTT14=
EXTT15=
EXTT16=
EXTT17=
EXTT18=
EXTT19=
EXTT20=
PLAYORDER=
